<?xml version="1.0" standalone="no"?>
<!DOCTYPE svg PUBLIC "-//W3C//DTD SVG 20010904//EN"
 "http://www.w3.org/TR/2001/REC-SVG-20010904/DTD/svg10.dtd">
<svg version="1.0" xmlns="http://www.w3.org/2000/svg"
 width="1000.000000pt" height="1000.000000pt" viewBox="0 0 1000.000000 1000.000000"
 preserveAspectRatio="xMidYMid meet">
<metadata>
Created by potrace 1.11, written by Peter Selinger 2001-2013
</metadata>
<g transform="translate(0.000000,1000.000000) scale(0.100000,-0.100000)"
fill="#000000" stroke="none">
<path d="M4783 9989 c-679 -26 -1345 -195 -1968 -499 -1656 -809 -2733 -2455
-2804 -4287 -54 -1407 468 -2742 1459 -3733 395 -395 847 -717 1386 -988 341
-171 871 -339 1299 -410 152 -26 451 -60 520 -60 11 0 144 -1 295 -2 291 -1
450 8 698 40 733 96 1465 372 2087 785 1345 894 2178 2374 2234 3969 8 244 -1
544 -24 741 -166 1461 -939 2746 -2150 3580 -246 169 -610 372 -865 481 -202
86 -519 192 -747 248 -460 114 -892 155 -1420 135z m1580 -2266 c39 -64 125
-237 132 -268 7 -32 19 -71 24 -80 6 -11 6 -13 16 -59 3 -16 8 -33 10 -37 13
-20 33 -227 30 -309 -14 -362 -192 -764 -449 -1013 -39 -38 -91 -83 -116 -100
-25 -17 -47 -34 -50 -37 -7 -9 -390 -234 -414 -243 -11 -4 -72 -39 -135 -76
-64 -38 -246 -144 -406 -236 -159 -93 -301 -176 -315 -186 -42 -29 -1150 -674
-1233 -718 l-79 -41 -17 22 c-26 34 -151 251 -152 263 0 6 -6 19 -13 30 -7 11
-15 29 -19 40 -3 11 -15 52 -26 90 -12 39 -24 86 -27 105 -3 19 -9 51 -13 70
-13 59 -5 279 13 364 80 372 316 739 597 927 130 87 154 102 165 102 6 0 558
321 1225 713 668 392 1217 713 1221 713 4 1 18 -16 31 -36z"/>
</g>
</svg>
